<svg width="104" height="55" viewBox="0 0 104 55" fill="none" xmlns="http://www.w3.org/2000/svg">
<path fill-rule="evenodd" clip-rule="evenodd" d="M17.1211 0.03277C17.1221 0.0508154 18.388 2.30596 19.9341 5.04422C22.9727 10.4257 22.8219 10.1877 23.1969 10.1951C23.4136 10.1994 23.5959 10.1033 23.7217 9.91839C23.9446 9.59078 24.0043 9.71692 21.6735 5.59275C20.5124 3.53807 19.4837 1.7144 19.3875 1.54019L19.2128 1.22341H21.6624H24.1119L28.9797 9.87549L33.8475 18.5276L33.7378 18.6711C33.1269 19.4704 33.4589 20.6976 34.4058 21.1406C34.6202 21.2409 34.7113 21.2568 35.0702 21.2568C35.4446 21.2568 35.5145 21.2434 35.7707 21.1216C36.1324 20.9498 36.4044 20.6784 36.5765 20.3174C36.6985 20.0617 36.712 19.992 36.712 19.6183C36.712 19.2625 36.6958 19.1686 36.5981 18.9609C36.33 18.3903 35.7953 18.021 35.1796 17.981L34.9607 17.9668L29.9044 8.9834L24.8481 0H20.9836C18.8582 0 17.12 0.0147247 17.1211 0.03277ZM53.0544 4.34198C51.688 6.72808 50.5581 8.7402 50.5434 8.81339C50.5257 8.90174 50.5471 9.01499 50.607 9.15013C50.6809 9.317 50.734 9.37 50.9005 9.44349C51.1278 9.54385 51.2984 9.53153 51.5107 9.39945C51.6121 9.33631 52.1703 8.39568 53.9619 5.26903L56.2818 1.22036L63.7912 1.23613C69.2793 1.24766 71.4007 1.26588 71.6727 1.30385C73.9309 1.61915 75.5581 2.172 77.3336 3.2271L77.675 3.42993L77.6467 3.69593C77.5744 4.37742 77.9773 5.06349 78.629 5.36839C78.8407 5.46744 78.933 5.48352 79.291 5.48352C79.6506 5.48352 79.7408 5.46766 79.9572 5.36642C81.2305 4.77088 81.2821 3.01025 80.0446 2.38631C79.5915 2.15784 79.1529 2.14189 78.6667 2.3362L78.4146 2.43695L77.9443 2.1536C76.05 1.01242 73.6799 0.247698 71.41 0.0452226C71.0876 0.0164724 68.1426 0.000917559 63.2226 0.0019662L55.5387 0.00367024L53.0544 4.34198ZM58.5894 5.7566C58.4952 5.91883 55.7723 10.6623 52.5385 16.2976C47.3505 25.3384 46.6589 26.5649 46.6585 26.7238C46.6573 27.2347 47.2398 27.5273 47.6373 27.2154C47.7287 27.1436 49.5678 23.9773 53.6104 16.9312L59.4513 6.75063L65.0257 6.73795C68.8576 6.72926 70.7369 6.74027 71.0379 6.77321C71.9936 6.87786 72.9234 7.14247 73.8086 7.56179C75.2416 8.24053 76.4152 9.26496 77.295 10.6051C77.8498 11.4502 78.2963 12.5333 78.4989 13.5257C78.5779 13.9124 78.6393 14.4678 78.691 15.2631C78.7055 15.4857 78.727 15.5368 78.8637 15.6732C79.1616 15.9705 79.6405 15.905 79.8375 15.5401C79.908 15.4095 79.9142 15.3193 79.8917 14.7636C79.7064 10.2096 76.3005 6.38902 71.7384 5.61766C70.9143 5.47832 70.1471 5.46189 64.4614 5.46176L58.7606 5.46167L58.5894 5.7566ZM61.9615 7.83204C61.9142 7.91012 60.9031 9.66497 59.7146 11.7317C57.6496 15.3227 57.5538 15.4991 57.5533 15.7097C57.5526 15.9904 57.6541 16.1485 57.9066 16.26C58.1451 16.3653 58.3649 16.3347 58.5432 16.1715C58.6117 16.1087 59.5826 14.4647 60.7006 12.5181L62.7334 8.97899L63.7551 8.95203C65.2862 8.9117 67.6447 8.90877 67.6447 8.94727C67.6447 8.96588 64.7518 14.0141 61.2161 20.1655L54.7874 31.35L54.4626 31.3769C53.7921 31.4323 53.3379 31.7368 53.0585 32.3181C52.5443 33.3878 53.3273 34.6499 54.5107 34.6588C55.4051 34.6655 56.0941 34.0502 56.2001 33.1499C56.2336 32.8653 56.1286 32.4245 55.9704 32.1854C55.8812 32.0506 55.8672 31.9963 55.9018 31.9205C55.9257 31.868 59.053 26.4193 62.8513 19.8122C66.6496 13.2051 69.7668 7.77471 69.7784 7.74465C69.7951 7.70122 69.0063 7.69003 65.9235 7.69003H62.0476L61.9615 7.83204ZM82.7498 7.76877C82.6655 7.815 82.5595 7.9158 82.5143 7.99274C82.3775 8.22519 82.4019 8.41154 82.6261 8.84791C84.52 12.5332 84.6795 16.9598 83.0548 20.7407C81.476 24.4144 78.3931 27.2601 74.6062 28.5393C74.3293 28.6328 73.8761 28.7667 73.5992 28.8368C73.1017 28.9628 72.0658 29.1624 72.0499 29.1355C71.7101 28.5626 71.2146 28.2619 70.6 28.2556C69.6621 28.2461 68.9432 28.963 68.9432 29.9081C68.9432 30.5614 69.2754 31.09 69.8692 31.3817C70.1365 31.513 70.1946 31.5248 70.5781 31.5248C70.9616 31.5248 71.0198 31.513 71.2871 31.3817C71.6281 31.2142 71.9775 30.8601 72.0887 30.5694C72.1597 30.3839 72.1703 30.376 72.3882 30.3473C73.6137 30.1855 75.3525 29.6581 76.6317 29.0604C78.9647 27.9701 81.1505 26.1319 82.6422 24.0054C84.1378 21.8736 85.0218 19.5273 85.3407 16.8438C85.4147 16.2205 85.4148 14.2797 85.3408 13.676C85.1941 12.4792 84.9594 11.4169 84.6136 10.384C84.2547 9.31184 83.6221 7.96836 83.4006 7.80779C83.2299 7.68405 82.9364 7.66644 82.7498 7.76877ZM48.5564 11.1218C48.23 11.213 48.0001 11.3551 47.7534 11.6184C47.4716 11.9189 47.3661 12.1735 47.3399 12.6153C47.3164 13.0111 47.3867 13.3125 47.5672 13.5893L47.6673 13.743L44.344 19.5316C42.5161 22.7154 41.0033 25.3505 40.9823 25.3874C40.9543 25.4364 41.401 26.2601 42.6411 28.446C44.5262 31.7688 44.4478 31.6569 44.8676 31.6233C45.0461 31.609 45.1277 31.5768 45.2278 31.4811C45.3827 31.3329 45.4657 31.1062 45.4301 30.9284C45.4158 30.857 44.7226 29.5978 43.8898 28.1301L42.3754 25.4615L44.5083 21.7425C45.6814 19.6971 47.1114 17.2054 47.686 16.2056L48.7308 14.3877L49.0609 14.3628C49.9275 14.2974 50.5572 13.667 50.604 12.8182C50.6352 12.2521 50.4729 11.8627 50.0465 11.4801C49.6534 11.1274 49.0529 10.983 48.5564 11.1218ZM25.2847 12.4676C24.7971 12.6291 24.4504 12.9283 24.2386 13.3702C24.1158 13.6265 24.1025 13.6948 24.1025 14.0702C24.1025 14.452 24.1143 14.5101 24.2462 14.7774C24.4082 15.1058 24.7062 15.4021 25.0251 15.5517C25.2689 15.6661 25.6626 15.7444 25.8241 15.7107C25.9395 15.6867 26.0736 15.9208 34.1914 30.3245C38.7289 38.3755 42.4647 44.9821 42.4931 45.0056C42.5261 45.033 43.598 45.0444 45.4505 45.0372L48.3561 45.026L50.3338 41.5859C51.4216 39.6939 52.3333 38.0837 52.3598 38.0076C52.4657 37.7044 52.2292 37.3064 51.9071 37.2461C51.7098 37.2092 51.4453 37.2804 51.3373 37.3996C51.2943 37.447 50.4478 38.8972 49.4561 40.6223L47.6531 43.7589L45.4225 43.7687L43.1919 43.7785L35.109 29.4373L27.0261 15.0961L27.1088 14.9784C27.6883 14.1545 27.3013 12.8954 26.3573 12.5334C26.0595 12.4191 25.5291 12.3866 25.2847 12.4676ZM55.869 17.4792C55.3727 17.5819 54.9165 17.9506 54.6939 18.4291C54.476 18.8978 54.5179 19.5281 54.7966 19.9706L54.8946 20.1263L50.217 28.2655C47.6444 32.7421 45.5137 36.4432 45.4822 36.4902C45.4304 36.5672 45.0782 35.9594 41.8884 30.2889C39.8594 26.682 38.2952 23.9479 38.2187 23.8748C38.1022 23.7633 38.0529 23.7473 37.8263 23.7473C37.5851 23.7473 37.5559 23.7587 37.4023 23.9119C37.2493 24.0646 37.2375 24.0946 37.2391 24.327C37.2408 24.5773 37.2449 24.5849 41.3144 31.8088C43.5548 35.786 45.405 39.0373 45.4257 39.0339C45.4465 39.0305 47.8233 34.9211 50.7076 29.902L55.9517 20.7762L56.2706 20.7475C56.8169 20.6985 57.2166 20.4939 57.5065 20.115C57.7616 19.7816 57.8486 19.4873 57.8276 19.0285C57.8043 18.5179 57.6751 18.235 57.3117 17.8993C56.9193 17.5367 56.3676 17.3761 55.869 17.4792ZM76.0729 20.3062C75.3627 20.5607 74.9188 21.2221 74.966 21.9555L74.9863 22.2718L74.6321 22.4923C73.9198 22.9355 73.0457 23.3136 72.2857 23.5074C71.3311 23.7508 71.6282 23.7379 66.3566 23.7654L61.4565 23.791L59.5365 27.1336L57.6166 30.4761L61.8261 30.4873C65.9835 30.4983 66.0373 30.4973 66.1787 30.4101C66.5752 30.1656 66.536 29.5683 66.1092 29.3511C65.9704 29.2805 65.7237 29.2747 62.8567 29.2746C60.3925 29.2746 59.7588 29.2633 59.7761 29.2199C59.788 29.1899 60.3296 28.2412 60.9796 27.1117L62.1614 25.0581L66.6215 25.0331C70.5552 25.011 71.1333 24.9993 71.5195 24.9334C72.9438 24.6901 74.1987 24.2284 75.2745 23.5519L75.7019 23.2831L75.99 23.3981C76.6439 23.6591 77.3481 23.4962 77.8315 22.972C78.0679 22.7156 78.1449 22.5615 78.2228 22.1888C78.3746 21.462 78.0117 20.7303 77.3344 20.3975C77.0911 20.278 76.9895 20.2542 76.6695 20.2421C76.3879 20.2314 76.2361 20.2478 76.0729 20.3062ZM0 48.3017C0 48.3554 3.79489 54.5313 3.92939 54.6966C4.11744 54.9277 4.32107 55.0337 4.49406 54.9906C4.56284 54.9735 4.70588 54.8676 4.81197 54.7553C4.91963 54.6414 5.86407 53.1706 6.94915 51.4271L8.89346 48.303L8.16062 48.291C7.75755 48.2844 7.41294 48.2942 7.39481 48.3128C7.37669 48.3315 6.71 49.4183 5.91333 50.728C5.11665 52.0377 4.45028 53.1141 4.4325 53.1199C4.41472 53.1258 3.74318 52.0394 2.94011 50.7058L1.48008 48.2812H0.74002C0.333013 48.2812 0 48.2904 0 48.3017ZM10.2429 48.4046C10.1358 48.4725 9.98611 48.5987 9.91028 48.6852C9.78711 48.8255 6.1734 54.7903 6.1734 54.8532C6.1734 54.8673 6.50414 54.8789 6.90838 54.8789H7.64332L9.08405 52.5163C9.87643 51.2168 10.5465 50.1241 10.573 50.0878C10.612 50.0346 10.7266 50.1965 11.1707 50.9321L11.7202 51.8422L10.8648 51.864L10.0094 51.8859L9.67039 52.432C9.48392 52.7324 9.33011 52.993 9.32857 53.011C9.32704 53.029 10.0302 53.0443 10.891 53.045L12.4563 53.0462L13.0029 53.9625L13.5496 54.8789H14.2883C14.9025 54.8789 15.023 54.8686 15.0035 54.8179C14.9906 54.7843 14.1979 53.4227 13.2419 51.7921C11.4793 48.7855 11.2929 48.5037 10.9637 48.3478C10.7383 48.2411 10.4671 48.2624 10.2429 48.4046ZM15.7274 50.4986L15.7412 52.716L15.8605 53.069C16.1646 53.9685 16.7703 54.4959 17.7995 54.7574C18.1602 54.849 18.2871 54.857 19.374 54.857C20.4608 54.857 20.5877 54.849 20.9484 54.7574C21.9137 54.5121 22.5187 54.0187 22.8086 53.2404C23.0129 52.6918 23.0298 52.4674 23.0298 50.3091V48.2812H22.4388H21.8477V50.2889C21.8477 51.5387 21.8302 52.3782 21.8013 52.5127C21.7388 52.8033 21.5158 53.1625 21.2928 53.3317C20.8646 53.6566 20.0171 53.7892 18.9029 53.7057C18.1955 53.6527 17.9098 53.5949 17.617 53.4455C17.345 53.3067 17.0908 52.9915 16.9794 52.655C16.888 52.3786 16.8832 52.2805 16.8665 50.3238L16.849 48.2812H16.2813H15.7136L15.7274 50.4986ZM24.1244 51.58V54.8789H26.9922H29.86V54.3109V53.7428H27.5833H25.3066V51.012V48.2812H24.7155H24.1244V51.58ZM28.0308 48.8601L28.043 49.439L29.3455 49.4506L30.6481 49.4622V52.1705V54.8789H31.2391H31.8302V52.1699V49.4609H33.1218H34.4134V48.871V48.2812H31.216H28.0186L28.0308 48.8601ZM38.135 51.5781V54.8789H38.726H39.3171V52.1699V49.4609H41.3513C43.2715 49.4609 43.3986 49.4657 43.6171 49.5474C44.1319 49.7397 44.3947 50.117 44.3955 50.6648C44.3962 51.1836 44.1675 51.5309 43.6735 51.7611C43.4557 51.8627 43.4457 51.8632 41.7142 51.8636L39.9738 51.864V52.4539V53.0437H41.5957C43.4066 53.0437 43.6475 53.0177 44.2023 52.7622C44.5958 52.5809 45.0733 52.1412 45.2636 51.7849C45.5301 51.286 45.6051 50.6619 45.4683 50.0827C45.2875 49.3174 44.693 48.707 43.8521 48.423L43.4984 48.3035L40.8167 48.2904L38.135 48.2774V51.5781ZM46.2348 51.58V54.8789H46.8259H47.417V52.1699V49.4609H49.4726C51.5848 49.4609 51.8302 49.4772 52.1518 49.6396C52.3587 49.744 52.5996 50.027 52.6639 50.2412C52.7408 50.4975 52.7257 50.94 52.633 51.1431C52.535 51.3578 52.2506 51.6199 51.9778 51.7468C51.7796 51.839 51.7172 51.8423 49.9235 51.8552L48.0737 51.8684V52.4561V53.0437H49.311H50.5482L51.4669 53.9613L52.3855 54.8789H53.2393H54.0931L53.1193 53.9063C52.5837 53.3714 52.1455 52.9192 52.1455 52.9014C52.1455 52.8836 52.1786 52.869 52.2189 52.869C52.2593 52.869 52.4581 52.7889 52.6608 52.691C53.3018 52.3814 53.7668 51.8122 53.8993 51.1747C53.9727 50.8221 53.9285 50.161 53.8088 49.8196C53.5445 49.0656 52.798 48.5262 51.7713 48.3476C51.459 48.2932 50.9216 48.2812 48.8123 48.2812H46.2348V51.58ZM57.6031 48.3492C56.3614 48.5794 55.4333 49.4269 55.1177 50.6188C54.988 51.1086 54.9885 51.9605 55.1189 52.4514C55.4315 53.6284 56.3119 54.5038 57.4755 54.7947C57.8126 54.8789 57.9384 54.8839 59.402 54.8704L60.9678 54.856L61.318 54.7335C62.4476 54.3384 63.226 53.4419 63.4656 52.2602C63.5551 51.8183 63.5337 50.9873 63.4222 50.5751C63.1309 49.4992 62.308 48.7021 61.1648 48.3885C60.7692 48.2799 58.1334 48.2509 57.6031 48.3492ZM64.0642 48.8601L64.0764 49.439L65.3789 49.4506L66.6815 49.4622V52.1705V54.8789H67.2725H67.8636V52.1699V49.4609H69.1552H70.4468V48.871V48.2812H67.2494H64.0519L64.0642 48.8601ZM73.6648 48.3442C72.9633 48.4784 72.4432 48.7472 71.9625 49.2238C71.4842 49.6981 71.2163 50.2235 71.1064 50.9028C70.8569 52.4441 71.5763 53.9293 72.8729 54.5499C73.5115 54.8556 73.6859 54.8789 75.3412 54.8789C76.9868 54.8789 77.1722 54.8525 77.8461 54.5222C78.1498 54.3734 78.2908 54.2669 78.6123 53.943C79.0626 53.4896 79.2625 53.1543 79.4478 52.5413C79.5529 52.1938 79.5667 52.0768 79.5663 51.5363C79.566 51.0553 79.5466 50.8534 79.4753 50.591C79.1857 49.5249 78.4322 48.7608 77.3426 48.4286C76.9498 48.3087 76.9439 48.3083 75.4599 48.297C74.3552 48.2885 73.8923 48.3007 73.6648 48.3442ZM82.9845 48.3457C82.2603 48.4768 81.7697 48.7316 81.2602 49.2408C80.6366 49.8641 80.3814 50.5152 80.3773 51.4926C80.3716 52.8733 81.024 53.994 82.1587 54.5531C82.7984 54.8683 82.9 54.8789 85.2962 54.8789H87.4346V54.3109V53.7428L85.5191 53.742C84.4656 53.7415 83.4657 53.7217 83.2971 53.6981C82.8813 53.6397 82.415 53.4069 82.1155 53.1079C81.1626 52.1569 81.4215 50.351 82.6022 49.7136C83.0531 49.4701 83.1548 49.4609 85.386 49.4609H87.4346V48.871V48.2812L85.3658 48.2851C83.8772 48.2879 83.2094 48.3049 82.9845 48.3457ZM91.032 48.3284C90.3208 48.4517 89.6852 48.7894 89.1948 49.3047C88.4061 50.1332 88.1567 51.444 88.5515 52.686C88.7045 53.1674 88.9383 53.5394 89.3391 53.9395C89.7375 54.337 90.103 54.5665 90.6089 54.7369C90.9583 54.8546 90.9625 54.8549 92.4691 54.8696C94.1062 54.8854 94.3411 54.8654 94.8572 54.6654C95.8069 54.2974 96.4973 53.4986 96.7921 52.4268C96.9129 51.9879 96.9004 50.9889 96.7685 50.5329C96.5179 49.6663 95.9736 49.0224 95.1623 48.6328C94.5226 48.3256 94.4223 48.3117 92.7542 48.2991C91.9355 48.293 91.1605 48.3062 91.032 48.3284ZM97.5485 51.58V54.8789H100.394H103.24V54.3109V53.7428H100.964H98.6868V51.012V48.2812H98.1176H97.5485V51.58ZM60.8349 49.5279C62.5636 49.9772 62.9438 52.4427 61.4319 53.4C60.9996 53.6737 60.7783 53.712 59.5117 53.7327C58.8165 53.7439 58.2195 53.7325 58.0012 53.7037C57.0693 53.5806 56.3643 52.917 56.213 52.0204C56.0181 50.8659 56.6524 49.8144 57.716 49.5286C58.0625 49.4356 60.4774 49.4349 60.8349 49.5279ZM76.8041 49.51C77.5523 49.6686 78.2107 50.3255 78.3667 51.0688C78.4357 51.3976 78.4269 51.9325 78.3473 52.2372C78.1741 52.901 77.6209 53.4517 76.9389 53.6393C76.6796 53.7107 76.4763 53.721 75.3286 53.721C74.1809 53.721 73.9776 53.7107 73.7183 53.6393C73.0362 53.4517 72.4831 52.901 72.3098 52.2372C72.2267 51.9183 72.2225 51.3068 72.3015 51.012C72.4961 50.2861 73.0907 49.6932 73.7962 49.5216C74.0873 49.4508 76.481 49.4416 76.8041 49.51ZM94.1714 49.5244C95.2325 49.8062 95.8552 50.7831 95.7087 51.9361C95.6531 52.3737 95.4734 52.7563 95.176 53.0702C94.9079 53.3531 94.677 53.4985 94.296 53.6245C94.0552 53.7041 93.8874 53.7166 92.8355 53.7328C91.4663 53.7538 91.1451 53.72 90.6964 53.5081C89.8219 53.0949 89.393 52.182 89.5836 51.1402C89.723 50.3785 90.3212 49.7318 91.0732 49.5301C91.4122 49.439 93.8335 49.4346 94.1714 49.5244Z" fill="white"/>
</svg>
